<svg width="24" height="24" viewBox="0 0 24 24" fill="none" xmlns="http://www.w3.org/2000/svg">
<path d="M10.6155 16.077H7.077C5.949 16.077 4.9875 15.6796 4.1925 14.8848C3.3975 14.0899 3 13.1287 3 12.001C3 10.8733 3.3975 9.91176 4.1925 9.11626C4.9875 8.32076 5.949 7.923 7.077 7.923H10.6155V8.923H7.077C6.23083 8.923 5.50642 9.22434 4.90375 9.82701C4.30125 10.4295 4 11.1538 4 12C4 12.8462 4.30125 13.5705 4.90375 14.173C5.50642 14.7757 6.23083 15.077 7.077 15.077H10.6155V16.077ZM8.5 12.5V11.5H15.5V12.5H8.5ZM13.3845 16.077V15.077H16.923C17.7692 15.077 18.4936 14.7757 19.0963 14.173C19.6987 13.5705 20 12.8462 20 12C20 11.1538 19.6987 10.4295 19.0963 9.82701C18.4936 9.22434 17.7692 8.923 16.923 8.923H13.3845V7.923H16.923C18.051 7.923 19.0125 8.32042 19.8075 9.11525C20.6025 9.91009 21 10.8713 21 11.999C21 13.1267 20.6025 14.0883 19.8075 14.8838C19.0125 15.6793 18.051 16.077 16.923 16.077H13.3845Z" fill="#575757"/>
</svg>
