<svg width="196" height="39" viewBox="0 0 196 39" fill="none" xmlns="http://www.w3.org/2000/svg">
<circle cx="12.3333" cy="26.0556" r="12.3333" fill="#A6B1F8"/>
<rect x="14" y="13" width="13" height="25" fill="#6B7CE9"/>
<path d="M14 0L37 22.6111L14 22.5V0Z" fill="#DFE3FF"/>
<path d="M67.912 13.1629C67.782 19.0129 69.628 24.3689 69.628 30.0109H62.062C62.296 27.4369 62.374 24.7849 62.374 22.1069C62.374 18.5449 60.268 18.3109 60.034 19.0649L56.966 30.0109H51.766C51.532 27.2549 51.324 24.4729 50.856 21.1709C50.856 18.0249 47.606 17.8949 47.606 20.8589C47.606 23.8749 47.996 27.0989 48.542 30.0109H41.132C41.054 25.7209 42.094 20.5469 42.094 15.9189C42.094 14.9829 42.094 14.0729 42.042 13.1629H53.17C53.248 15.8929 53.742 18.9869 54.912 21.8209C55.354 22.4969 56.29 22.6269 56.472 22.0549L58.838 13.1629H67.912ZM74.025 13.1629H80.785C80.629 15.7889 80.499 18.1809 80.499 20.4429C80.499 24.1349 83.255 25.4349 85.933 25.4349C87.701 25.4349 88.923 24.6289 88.923 22.8869C88.923 19.8189 87.571 16.3609 87.389 13.1629H95.267C94.955 16.4909 94.955 19.5589 95.007 22.9909C95.137 28.3209 89.833 30.6609 84.451 30.6609C78.965 30.6609 72.933 28.3729 74.337 23.6409C74.623 22.5229 74.727 21.3789 74.727 20.2089C74.727 17.6869 74.025 15.1129 74.025 13.1629ZM98.7244 23.5889C99.8684 24.7589 100.856 25.5389 102.234 25.5389C103.742 25.5389 104.548 24.6549 104.548 23.2249C104.548 21.3269 103.534 14.8009 103.222 13.1629H110.84C110.554 14.4889 110.424 16.3089 110.424 18.0249C110.424 21.3789 112.088 23.9529 112.088 25.1749C112.088 29.5689 108.292 30.3229 104.21 30.3229C101.714 30.3229 99.7124 30.1669 98.2564 29.7249L98.7244 23.5889ZM116.402 13.1629H123.162C123.006 15.7889 122.876 18.1809 122.876 20.4429C122.876 24.1349 125.632 25.4349 128.31 25.4349C130.078 25.4349 131.3 24.6289 131.3 22.8869C131.3 19.8189 129.948 16.3609 129.766 13.1629H137.644C137.332 16.4909 137.332 19.5589 137.384 22.9909C137.514 28.3209 132.21 30.6609 126.828 30.6609C121.342 30.6609 115.31 28.3729 116.714 23.6409C117 22.5229 117.104 21.3789 117.104 20.2089C117.104 17.6869 116.402 15.1129 116.402 13.1629ZM164.085 13.1629C164.241 15.7889 162.499 18.3109 162.499 21.7949C162.499 24.3169 162.837 26.9949 163.825 30.0109H154.491L151.319 21.0409C151.111 20.4429 148.927 20.3129 148.927 22.3669C148.927 24.5769 149.109 27.4109 149.629 30.0109H141.751C141.751 25.3569 143.701 19.7409 143.571 13.1629H151.267L154.985 23.7709C155.245 24.4729 157.065 24.6549 157.065 23.1469V13.1629H164.085ZM180.066 12.5389C187.45 12.5389 191.818 15.0349 193.04 18.8829L184.876 20.6769C185.266 18.0509 183.524 16.9329 180.066 16.9329C176.582 16.9329 175.308 18.3369 175.308 20.7289C175.308 23.3549 177.44 24.3169 179.754 24.3169C181.002 24.3169 181.86 24.0569 182.38 23.5109C181.704 25.5129 180.508 28.1909 179.676 30.5309C179.13 30.6349 178.662 30.6609 177.96 30.6609C170.888 30.5829 170.212 25.4349 169.016 20.9889C168.106 17.0109 168.002 12.5389 180.066 12.5389ZM184.174 30.0109V23.1209C186.488 23.8489 189.79 24.4469 192.91 24.5509V30.0109H184.174Z" fill="black"/>
</svg>
