<svg width="50" height="15" viewBox="0 0 113 37" fill="none" xmlns="http://www.w3.org/2000/svg">
<path d="M18.171 0C8.118 0 0 8.142 0 18.172C0 28.224 8.14 36.344 18.172 36.344C28.224 36.344 36.344 28.204 36.344 18.172C36.344 8.14 28.204 0 18.172 0H18.171ZM26.508 26.226C26.182 26.769 25.488 26.921 24.945 26.596C20.668 23.991 15.305 23.406 8.965 24.836C8.357 24.966 7.749 24.596 7.619 23.989C7.489 23.382 7.859 22.773 8.466 22.643C15.392 21.058 21.34 21.731 26.116 24.663C26.659 24.989 26.832 25.683 26.506 26.226H26.508ZM28.722 21.276C28.31 21.949 27.442 22.144 26.768 21.754C21.883 18.758 14.438 17.89 8.662 19.626C7.902 19.843 7.122 19.431 6.902 18.692C6.685 17.932 7.097 17.152 7.857 16.932C14.457 14.935 22.663 15.89 28.287 19.332C28.937 19.722 29.134 20.592 28.721 21.264L28.722 21.276ZM28.917 16.109C23.055 12.635 13.394 12.309 7.793 14.003C6.893 14.285 5.948 13.763 5.665 12.873C5.382 11.983 5.905 11.028 6.795 10.745C13.221 8.791 23.903 9.182 30.633 13.177C31.436 13.655 31.697 14.697 31.219 15.5C30.785 16.325 29.721 16.586 28.919 16.108L28.917 16.109Z" fill="#1ED760"/>
<path d="M45.8068 15.6284C42.7075 14.9016 42.1731 14.3673 42.1731 13.2771C42.1731 12.2511 43.135 11.5671 44.5671 11.5671C45.9565 11.5671 47.3458 12.1015 48.7993 13.1703C48.8421 13.213 48.9062 13.213 48.949 13.213C49.0131 13.213 49.0558 13.1703 49.0772 13.1275L50.5948 10.99C50.6249 10.9471 50.6373 10.8943 50.6293 10.8425C50.6214 10.7907 50.5937 10.744 50.5521 10.7121C48.8207 9.32276 46.8756 8.66013 44.6098 8.66013C41.2753 8.66013 38.9455 10.6694 38.9455 13.5336C38.9455 16.6116 40.9547 17.7018 44.4388 18.5354C47.3886 19.2194 47.9016 19.7965 47.9016 20.8011C47.9016 21.934 46.897 22.6394 45.2725 22.6394C43.477 22.6394 42.0021 22.0409 40.3562 20.6088C40.3135 20.566 40.2493 20.566 40.2066 20.566C40.1425 20.566 40.0997 20.5874 40.0783 20.6301L38.3897 22.6394C38.3256 22.7249 38.3256 22.8531 38.4111 22.9173C40.3348 24.6273 42.6861 25.525 45.2297 25.525C48.8207 25.525 51.1506 23.5585 51.1506 20.5233C51.1078 17.9583 49.5688 16.5475 45.8068 15.6284ZM59.2517 12.5718C57.6913 12.5718 56.4088 13.1916 55.3615 14.4528V13.042C55.3615 12.9351 55.276 12.8496 55.1691 12.8496H52.4117C52.3048 12.8496 52.2193 12.9351 52.2193 13.042V28.774C52.2193 28.8809 52.3048 28.9664 52.4117 28.9664H55.1691C55.276 28.9664 55.3615 28.8809 55.3615 28.774V23.815C56.4088 24.9906 57.6913 25.5678 59.2517 25.5678C62.1373 25.5678 65.0871 23.3448 65.0871 19.0698C65.0657 14.8161 62.1373 12.5718 59.2517 12.5718ZM61.8595 19.0698C61.8595 21.25 60.5128 22.7463 58.6105 22.7463C56.7081 22.7463 55.2973 21.1645 55.2973 19.0698C55.2973 16.975 56.7295 15.3933 58.6105 15.3933C60.4915 15.3933 61.8595 16.9323 61.8595 19.0698ZM72.5897 12.5718C68.8705 12.5718 65.9421 15.436 65.9421 19.1125C65.9421 22.7463 68.8491 25.5891 72.547 25.5891C76.2876 25.5891 79.216 22.7249 79.216 19.0698C79.216 15.436 76.309 12.5718 72.5897 12.5718ZM72.5897 22.7676C70.6018 22.7676 69.1056 21.1645 69.1056 19.0698C69.1056 16.9536 70.5591 15.4146 72.547 15.4146C74.5348 15.4146 76.0525 17.0178 76.0525 19.1339C76.0311 21.2286 74.5776 22.7676 72.5897 22.7676ZM87.1675 12.8283H84.1322V9.70751C84.1322 9.60063 84.0467 9.51513 83.9398 9.51513H81.1825C81.0756 9.51513 80.9901 9.60063 80.9901 9.70751V12.8283H79.6648C79.558 12.8283 79.4725 12.9138 79.4725 13.0206V15.3933C79.4725 15.5001 79.558 15.5856 79.6648 15.5856H80.9901V21.7416C80.9901 24.2211 82.2298 25.4823 84.6666 25.4823C85.6498 25.4823 86.4835 25.2685 87.253 24.841C87.3171 24.7983 87.3598 24.7341 87.3598 24.67V22.4043C87.3598 22.3401 87.3171 22.276 87.2743 22.2333C87.2102 22.1905 87.1461 22.1905 87.082 22.2333C86.5476 22.5111 86.0346 22.618 85.4575 22.618C84.5597 22.618 84.175 22.2119 84.175 21.3141V15.607H87.2102C87.3171 15.607 87.4026 15.5215 87.4026 15.4146V13.042C87.3812 12.9138 87.2957 12.8283 87.1675 12.8283ZM97.7908 12.8496V12.4649C97.7908 11.332 98.2183 10.8404 99.1802 10.8404C99.7573 10.8404 100.228 10.9473 100.741 11.1183C100.805 11.1396 100.869 11.1183 100.933 11.0969C100.976 11.0541 101.018 10.99 101.018 10.9259V8.59601C101.018 8.51051 100.954 8.42501 100.869 8.40363C100.313 8.23263 99.6291 8.08301 98.5603 8.08301C95.9953 8.08301 94.6487 9.51513 94.6487 12.2511V12.8283H93.3235C93.2166 12.8283 93.1097 12.9138 93.1097 13.0206V15.4146C93.1097 15.5215 93.1952 15.607 93.3235 15.607H94.6487V25.0975C94.6487 25.2044 94.7342 25.2899 94.8411 25.2899H97.5985C97.7053 25.2899 97.7908 25.2044 97.7908 25.0975V15.607H100.377L104.332 25.0975C103.883 26.1021 103.434 26.2945 102.835 26.2945C102.344 26.2945 101.831 26.1449 101.318 25.867C101.275 25.8456 101.211 25.8456 101.147 25.8456C101.104 25.867 101.04 25.9098 101.018 25.9525L100.078 28.0045C100.035 28.1114 100.078 28.2183 100.163 28.261C101.147 28.7954 102.023 29.0091 103.113 29.0091C105.165 29.0091 106.277 28.0473 107.281 25.5036L112.091 13.1061C112.112 13.042 112.112 12.9779 112.069 12.9138C112.027 12.8496 111.962 12.8283 111.898 12.8283H109.013C108.927 12.8283 108.842 12.8924 108.82 12.9565L105.871 21.3783L102.643 12.9351C102.622 12.8496 102.536 12.8069 102.451 12.8069H97.7908V12.8496ZM91.6348 12.8283H88.8775C88.7706 12.8283 88.6851 12.9138 88.6851 13.0206V25.0975C88.6851 25.2044 88.7706 25.2899 88.8775 25.2899H91.6348C91.7417 25.2899 91.8272 25.2044 91.8272 25.0975V13.042C91.8486 12.9138 91.7417 12.8283 91.6348 12.8283Z" fill="#1ED760"/>
<path d="M90.2668 11.3106C91.3647 11.3106 92.2547 10.4206 92.2547 9.32271C92.2547 8.22484 91.3647 7.33484 90.2668 7.33484C89.1689 7.33484 88.2789 8.22484 88.2789 9.32271C88.2789 10.4206 89.1689 11.3106 90.2668 11.3106Z" fill="#1ED760"/>
</svg>
