<svg width="24" height="24" viewBox="0 0 24 24" fill="none" xmlns="http://www.w3.org/2000/svg">
<g clip-path="url(#clip0_154_210)">
<path d="M12 0C5.3625 0 0 5.37638 0 12C0 18.6375 5.37638 24 12 24C18.6375 24 24 18.6236 24 12C24 5.37638 18.6236 0 12 0ZM17.505 17.319C17.2901 17.6775 16.8311 17.7776 16.4726 17.5627C13.6481 15.8422 10.107 15.4552 5.92013 16.4014C5.51887 16.4876 5.11762 16.2439 5.03137 15.8426C4.94513 15.4414 5.18887 15.0401 5.59013 14.9539C10.1636 13.9076 14.0914 14.3516 17.2459 16.2874C17.3308 16.338 17.405 16.4049 17.464 16.4843C17.523 16.5637 17.5657 16.6539 17.5897 16.7499C17.6137 16.8458 17.6184 16.9456 17.6037 17.0434C17.589 17.1412 17.555 17.2351 17.5039 17.3197L17.505 17.319ZM18.9675 14.0501C18.6953 14.4945 18.1215 14.6239 17.6775 14.3651C14.4517 12.3866 9.534 11.8133 5.72062 12.96C5.21887 13.1033 4.70288 12.831 4.55925 12.3435C4.416 11.8418 4.68825 11.3258 5.19 11.1821C9.54825 9.86325 14.9678 10.494 18.681 12.7736C19.1111 13.0316 19.2397 13.605 18.9679 14.0497L18.9675 14.0501ZM19.0965 10.6376C15.2254 8.34375 8.8455 8.12887 5.1465 9.24713C4.5585 9.4335 3.92775 9.08962 3.74137 8.50163C3.555 7.91362 3.89887 7.28288 4.48688 7.0965C8.73075 5.8065 15.7845 6.06413 20.2294 8.70225C20.76 9.01725 20.9318 9.70575 20.6164 10.236C20.3295 10.7809 19.6271 10.953 19.0965 10.6372V10.6376Z" fill="#1ED760"/>
</g>
<defs>
<clipPath id="clip0_154_210">
<rect width="24" height="24" fill="white"/>
</clipPath>
</defs>
</svg>
