<svg width="20" height="7" viewBox="0 0 20 7" fill="none" xmlns="http://www.w3.org/2000/svg">
<path d="M2.99983 0.328003C1.34019 0.328003 0 1.67216 0 3.328C0 4.98748 1.34383 6.328 3 6.328C4.65948 6.328 6 4.98418 6 3.328C6 1.67183 4.65617 0.328003 3 0.328003H2.99983ZM4.37618 4.65763C4.32236 4.74727 4.20779 4.77237 4.11815 4.71871C3.41206 4.28866 2.52669 4.19208 1.48002 4.42816C1.37965 4.44962 1.27928 4.38854 1.25781 4.28833C1.23635 4.18812 1.29744 4.08758 1.39764 4.06612C2.54105 3.80445 3.523 3.91556 4.31147 4.3996C4.40111 4.45342 4.42967 4.56799 4.37585 4.65763H4.37618ZM4.74169 3.84044C4.67367 3.95154 4.53038 3.98374 4.41911 3.91935C3.61265 3.42475 2.38356 3.28145 1.43 3.56804C1.30453 3.60387 1.17576 3.53585 1.13945 3.41385C1.10362 3.28838 1.17164 3.15961 1.29711 3.12329C2.38669 2.79361 3.74142 2.95127 4.66988 3.51951C4.77718 3.58389 4.80971 3.72752 4.74153 3.83846L4.74169 3.84044ZM4.77388 2.98742C3.80613 2.4139 2.2112 2.36009 1.28654 2.63975C1.13796 2.6863 0.98195 2.60012 0.93523 2.4532C0.88851 2.30627 0.974851 2.14861 1.12178 2.10189C2.18264 1.7793 3.94613 1.84385 5.05718 2.50338C5.18974 2.5823 5.23283 2.75432 5.15392 2.88688C5.08227 3.02308 4.90661 3.06617 4.77421 2.98726L4.77388 2.98742Z" fill="#1ED760"/>
<path d="M8.26344 2.89729C7.73873 2.77425 7.64826 2.68378 7.64826 2.49923C7.64826 2.32553 7.8111 2.20973 8.05356 2.20973C8.28877 2.20973 8.52399 2.3002 8.77007 2.48113C8.7773 2.48837 8.78816 2.48837 8.7954 2.48837C8.80625 2.48837 8.81349 2.48113 8.81711 2.4739L9.07404 2.11202C9.07914 2.10476 9.08123 2.09581 9.07988 2.08705C9.07853 2.07828 9.07385 2.07037 9.0668 2.06498C8.77369 1.82976 8.44438 1.71758 8.06079 1.71758C7.49627 1.71758 7.10183 2.05774 7.10183 2.54265C7.10183 3.06375 7.44199 3.24831 8.03184 3.38944C8.53123 3.50524 8.61808 3.60295 8.61808 3.77303C8.61808 3.96482 8.448 4.08424 8.17297 4.08424C7.869 4.08424 7.61931 3.98291 7.34066 3.74046C7.33343 3.73322 7.32257 3.73322 7.31533 3.73322C7.30448 3.73322 7.29724 3.73684 7.29362 3.74408L7.00774 4.08424C6.99688 4.09871 6.99688 4.12043 7.01136 4.13128C7.33704 4.42078 7.73511 4.57277 8.16574 4.57277C8.77369 4.57277 9.16813 4.23984 9.16813 3.72598C9.16089 3.29173 8.90034 3.0529 8.26344 2.89729ZM10.5396 2.37981C10.2755 2.37981 10.0583 2.48475 9.88102 2.69826V2.45942C9.88102 2.44133 9.86655 2.42685 9.84845 2.42685H9.38163C9.36354 2.42685 9.34907 2.44133 9.34907 2.45942V5.12282C9.34907 5.14091 9.36354 5.15539 9.38163 5.15539H9.84845C9.86655 5.15539 9.88102 5.14091 9.88102 5.12282V4.28327C10.0583 4.4823 10.2755 4.58001 10.5396 4.58001C11.0282 4.58001 11.5275 4.20366 11.5275 3.47991C11.5239 2.75978 11.0282 2.37981 10.5396 2.37981ZM10.9811 3.47991C10.9811 3.84902 10.7531 4.10233 10.4311 4.10233C10.109 4.10233 9.87017 3.83454 9.87017 3.47991C9.87017 3.12527 10.1126 2.85748 10.4311 2.85748C10.7495 2.85748 10.9811 3.11803 10.9811 3.47991ZM12.7977 2.37981C12.1681 2.37981 11.6723 2.86472 11.6723 3.48715C11.6723 4.10233 12.1644 4.58362 12.7905 4.58362C13.4238 4.58362 13.9195 4.09871 13.9195 3.47991C13.9195 2.86472 13.4274 2.37981 12.7977 2.37981ZM12.7977 4.10595C12.4612 4.10595 12.2079 3.83454 12.2079 3.47991C12.2079 3.12165 12.4539 2.8611 12.7905 2.8611C13.127 2.8611 13.384 3.13251 13.384 3.49076C13.3803 3.8454 13.1343 4.10595 12.7977 4.10595ZM15.2657 2.42323H14.7519V1.8949C14.7519 1.8768 14.7374 1.86233 14.7193 1.86233H14.2525C14.2344 1.86233 14.2199 1.8768 14.2199 1.8949V2.42323H13.9955C13.9774 2.42323 13.963 2.43771 13.963 2.4558V2.85748C13.963 2.87558 13.9774 2.89005 13.9955 2.89005H14.2199V3.93225C14.2199 4.35202 14.4298 4.56553 14.8423 4.56553C15.0088 4.56553 15.1499 4.52934 15.2802 4.45697C15.291 4.44973 15.2983 4.43888 15.2983 4.42802V4.04443C15.2983 4.03358 15.291 4.02272 15.2838 4.01548C15.2729 4.00824 15.2621 4.00824 15.2512 4.01548C15.1608 4.06253 15.0739 4.08062 14.9762 4.08062C14.8242 4.08062 14.7591 4.01186 14.7591 3.85988V2.89367H15.2729C15.291 2.89367 15.3055 2.8792 15.3055 2.8611V2.45942C15.3019 2.43771 15.2874 2.42323 15.2657 2.42323ZM17.0642 2.42685V2.36172C17.0642 2.16992 17.1366 2.08669 17.2994 2.08669C17.3972 2.08669 17.4768 2.10478 17.5636 2.13373C17.5745 2.13735 17.5853 2.13373 17.5962 2.13012C17.6034 2.12288 17.6107 2.11202 17.6107 2.10117V1.70672C17.6107 1.69225 17.5998 1.67777 17.5853 1.67415C17.4912 1.6452 17.3754 1.61987 17.1945 1.61987C16.7603 1.61987 16.5323 1.86233 16.5323 2.32553V2.42323H16.3079C16.2898 2.42323 16.2717 2.43771 16.2717 2.4558V2.8611C16.2717 2.8792 16.2862 2.89367 16.3079 2.89367H16.5323V4.50039C16.5323 4.51849 16.5467 4.53296 16.5648 4.53296H17.0317C17.0498 4.53296 17.0642 4.51849 17.0642 4.50039V2.89367H17.5021L18.1716 4.50039C18.0956 4.67047 18.0196 4.70304 17.9183 4.70304C17.835 4.70304 17.7482 4.67771 17.6613 4.63067C17.6541 4.62705 17.6432 4.62705 17.6324 4.62705C17.6251 4.63067 17.6143 4.63791 17.6107 4.64514L17.4514 4.99254C17.4442 5.01064 17.4514 5.02873 17.4659 5.03597C17.6324 5.12644 17.7807 5.16262 17.9653 5.16262C18.3127 5.16262 18.5009 4.99978 18.671 4.56915L19.4852 2.47028C19.4888 2.45942 19.4888 2.44857 19.4815 2.43771C19.4743 2.42685 19.4635 2.42323 19.4526 2.42323H18.9641C18.9496 2.42323 18.9351 2.43409 18.9315 2.44495L18.4321 3.87073L17.8857 2.44133C17.8821 2.42685 17.8676 2.41962 17.8531 2.41962H17.0642V2.42685ZM16.022 2.42323H15.5552C15.5371 2.42323 15.5226 2.43771 15.5226 2.4558V4.50039C15.5226 4.51849 15.5371 4.53296 15.5552 4.53296H16.022C16.0401 4.53296 16.0546 4.51849 16.0546 4.50039V2.45942C16.0582 2.43771 16.0401 2.42323 16.022 2.42323Z" fill="#1ED760"/>
<path d="M15.7904 2.16637C15.9763 2.16637 16.1269 2.0157 16.1269 1.82983C16.1269 1.64396 15.9763 1.49329 15.7904 1.49329C15.6045 1.49329 15.4539 1.64396 15.4539 1.82983C15.4539 2.0157 15.6045 2.16637 15.7904 2.16637Z" fill="#1ED760"/>
</svg>
