<svg width="44" height="15" viewBox="0 0 44 15" fill="none" xmlns="http://www.w3.org/2000/svg">
<path d="M6.99961 0.828003C3.12712 0.828003 0 3.96437 0 7.828C0 11.7001 3.13559 14.828 7 14.828C10.8721 14.828 14 11.6924 14 7.828C14 3.9636 10.8644 0.828003 7 0.828003H6.99961ZM10.2111 10.9305C10.0855 11.1396 9.81818 11.1982 9.60901 11.073C7.96148 10.0695 5.89561 9.84418 3.45339 10.395C3.21918 10.4451 2.98498 10.3026 2.9349 10.0688C2.88482 9.83494 3.02735 9.60034 3.26117 9.55027C5.92912 8.93971 8.22034 9.19896 10.0601 10.3284C10.2693 10.454 10.3359 10.7213 10.2103 10.9305H10.2111ZM11.0639 9.02369C10.9052 9.28293 10.5709 9.35805 10.3112 9.20782C8.42951 8.05373 5.56163 7.71937 3.33667 8.38809C3.04391 8.47168 2.74345 8.31298 2.65871 8.02831C2.57512 7.73555 2.73382 7.43509 3.02658 7.35034C5.56895 6.58108 8.72997 6.94896 10.8964 8.27484C11.1468 8.42508 11.2226 8.76021 11.0636 9.01907L11.0639 9.02369ZM11.1391 7.03332C8.88097 5.69511 5.15948 5.56953 3.00193 6.22207C2.65524 6.3307 2.29122 6.12962 2.1822 5.78679C2.07319 5.44395 2.27465 5.07608 2.61749 4.96706C5.09283 4.21437 9.20763 4.36498 11.8001 5.90389C12.1094 6.08802 12.2099 6.4894 12.0258 6.79873C11.8586 7.11652 11.4488 7.21706 11.1398 7.03293L11.1391 7.03332Z" fill="#1ED760"/>
<path d="M17.9101 6.83617C16.7015 6.55278 16.4931 6.3444 16.4931 5.91932C16.4931 5.51924 16.8682 5.25252 17.4266 5.25252C17.9684 5.25252 18.5102 5.4609 19.077 5.87765C19.0936 5.89432 19.1186 5.89432 19.1353 5.89432C19.1603 5.89432 19.177 5.87765 19.1853 5.86098L19.7771 5.02748C19.7888 5.01076 19.7937 4.99014 19.7905 4.96995C19.7874 4.94976 19.7766 4.93154 19.7604 4.91912C19.0853 4.37735 18.3268 4.11897 17.4433 4.11897C16.143 4.11897 15.2345 4.90245 15.2345 6.01934C15.2345 7.21958 16.018 7.64466 17.3766 7.96972C18.5268 8.23644 18.7269 8.46149 18.7269 8.85323C18.7269 9.29499 18.3351 9.57004 17.7017 9.57004C17.0015 9.57004 16.4264 9.33666 15.7846 8.77822C15.768 8.76155 15.743 8.76155 15.7263 8.76155C15.7013 8.76155 15.6846 8.76988 15.6763 8.78655L15.0178 9.57004C14.9928 9.60338 14.9928 9.65339 15.0262 9.6784C15.7763 10.3452 16.6932 10.6953 17.685 10.6953C19.0853 10.6953 19.9938 9.92844 19.9938 8.74488C19.9771 7.74468 19.377 7.19457 17.9101 6.83617ZM23.1528 5.64427C22.5443 5.64427 22.0442 5.88598 21.6358 6.37774V5.82764C21.6358 5.78596 21.6025 5.75262 21.5608 5.75262H20.4856C20.4439 5.75262 20.4106 5.78596 20.4106 5.82764V11.9622C20.4106 12.0039 20.4439 12.0372 20.4856 12.0372H21.5608C21.6025 12.0372 21.6358 12.0039 21.6358 11.9622V10.0285C22.0442 10.4869 22.5443 10.7119 23.1528 10.7119C24.278 10.7119 25.4282 9.84509 25.4282 8.1781C25.4199 6.51944 24.278 5.64427 23.1528 5.64427ZM24.1696 8.1781C24.1696 9.02827 23.6445 9.61172 22.9027 9.61172C22.1609 9.61172 21.6108 8.99493 21.6108 8.1781C21.6108 7.36127 22.1692 6.74448 22.9027 6.74448C23.6362 6.74448 24.1696 7.3446 24.1696 8.1781ZM28.3538 5.64427C26.9035 5.64427 25.7616 6.76115 25.7616 8.19477C25.7616 9.61172 26.8952 10.7203 28.3371 10.7203C29.7957 10.7203 30.9376 9.60338 30.9376 8.1781C30.9376 6.76115 29.8041 5.64427 28.3538 5.64427ZM28.3538 9.62005C27.5786 9.62005 26.9952 8.99493 26.9952 8.1781C26.9952 7.35294 27.562 6.75282 28.3371 6.75282C29.1123 6.75282 29.7041 7.37794 29.7041 8.2031C29.6957 9.01993 29.1289 9.62005 28.3538 9.62005ZM34.0382 5.74429H32.8547V4.52738C32.8547 4.4857 32.8213 4.45236 32.7797 4.45236H31.7044C31.6628 4.45236 31.6294 4.4857 31.6294 4.52738V5.74429H31.1127C31.071 5.74429 31.0377 5.77763 31.0377 5.8193V6.74448C31.0377 6.78616 31.071 6.8195 31.1127 6.8195H31.6294V9.21997C31.6294 10.1868 32.1129 10.6786 33.063 10.6786C33.4465 10.6786 33.7715 10.5952 34.0716 10.4285C34.0966 10.4119 34.1133 10.3869 34.1133 10.3619V9.47836C34.1133 9.45335 34.0966 9.42835 34.0799 9.41168C34.0549 9.39501 34.0299 9.39501 34.0049 9.41168C33.7965 9.52003 33.5965 9.56171 33.3714 9.56171C33.0214 9.56171 32.8713 9.40334 32.8713 9.05327V6.82783H34.0549C34.0966 6.82783 34.1299 6.79449 34.1299 6.75282V5.82764C34.1216 5.77763 34.0883 5.74429 34.0382 5.74429ZM38.1807 5.75262V5.60259C38.1807 5.16084 38.3474 4.96913 38.7225 4.96913C38.9475 4.96913 39.1309 5.01081 39.331 5.07749C39.356 5.08582 39.381 5.07749 39.406 5.06915C39.4226 5.05248 39.4393 5.02748 39.4393 5.00247V4.09396C39.4393 4.06062 39.4143 4.02728 39.381 4.01895C39.1643 3.95227 38.8975 3.89392 38.4808 3.89392C37.4806 3.89392 36.9555 4.45236 36.9555 5.51924V5.74429H36.4387C36.397 5.74429 36.3554 5.77763 36.3554 5.8193V6.75282C36.3554 6.79449 36.3887 6.82783 36.4387 6.82783H36.9555V10.5286C36.9555 10.5702 36.9888 10.6036 37.0305 10.6036H38.1057C38.1474 10.6036 38.1807 10.5702 38.1807 10.5286V6.82783H39.1893L40.7312 10.5286C40.5562 10.9203 40.3812 10.9953 40.1478 10.9953C39.9561 10.9953 39.756 10.937 39.556 10.8286C39.5393 10.8203 39.5143 10.8203 39.4893 10.8203C39.4726 10.8286 39.4476 10.8453 39.4393 10.862L39.0726 11.6621C39.0559 11.7038 39.0726 11.7455 39.1059 11.7621C39.4893 11.9705 39.8311 12.0539 40.2561 12.0539C41.0563 12.0539 41.4897 11.6788 41.8815 10.6869L43.7568 5.85264C43.7652 5.82764 43.7652 5.80263 43.7485 5.77763C43.7318 5.75262 43.7068 5.74429 43.6818 5.74429H42.5566C42.5232 5.74429 42.4899 5.76929 42.4816 5.7943L41.3313 9.07828L40.0728 5.78596C40.0644 5.75262 40.0311 5.73595 39.9978 5.73595H38.1807V5.75262ZM35.7803 5.74429H34.705C34.6634 5.74429 34.63 5.77763 34.63 5.8193V10.5286C34.63 10.5702 34.6634 10.6036 34.705 10.6036H35.7803C35.8219 10.6036 35.8553 10.5702 35.8553 10.5286V5.82764C35.8636 5.77763 35.8219 5.74429 35.7803 5.74429Z" fill="#1ED760"/>
<path d="M35.2468 5.15248C35.6749 5.15248 36.022 4.80543 36.022 4.37733C36.022 3.94922 35.6749 3.60217 35.2468 3.60217C34.8187 3.60217 34.4717 3.94922 34.4717 4.37733C34.4717 4.80543 34.8187 5.15248 35.2468 5.15248Z" fill="#1ED760"/>
</svg>
